<svg xmlns="http://www.w3.org/2000/svg" width="128" height="24" viewBox="0 0 128 24"><path fill="#222D39" d="M117.406,5.999875 L120.2175,5.999875 L120.20025,11.623125 L124.67425,5.999875 L127.98275,5.999875 L123.54325,11.331375 L128,17.999875 L124.62275,17.999875 L121.623,13.371625 L120.2175,14.982625 L120.2175,17.999875 L117.406,17.999875 L117.406,5.999875 Z M105.035875,11.9829 C105.035875,7.6119 106.989875,5.7599 110.881375,5.7599 C113.281375,5.7599 114.841625,6.5489 115.647125,8.4689 L113.401375,9.6344 C112.853125,8.43415 112.150125,8.07415 110.864375,8.07415 C108.961125,8.07415 107.864125,8.9314 107.864125,12.01715 C107.864125,15.06865 108.961125,15.99415 110.881375,15.99415 C112.115875,15.99415 113.007375,15.51415 113.555375,14.29715 L115.801375,15.41165 C114.927375,17.28015 113.332875,18.2399 110.795625,18.2399 C106.886875,18.2399 105.035875,16.26915 105.035875,11.9829 M97.117175,13.971425 L100.442675,13.971425 L98.779925,8.725675 L97.117175,13.971425 Z M101.094175,16.113925 L96.465925,16.113925 L95.865925,17.999925 L93.071675,17.999925 L97.134425,5.999925 L100.528675,5.999925 L104.591175,17.999925 L101.711425,17.999925 L101.094175,16.113925 Z M85.20995,12.99415 L85.20995,15.94315 L87.9357,15.94315 C89.0502,15.94315 89.5817,15.3944 89.5817,14.41715 C89.5817,13.54315 89.1012,12.99415 88.0217,12.99415 L85.20995,12.99415 Z M85.20995,8.09165 L85.20995,10.9374 L87.8502,10.9374 C88.87895,10.9374 89.32445,10.30265 89.32445,9.51465 C89.32445,8.5889 88.7757,8.09165 87.9017,8.09165 L85.20995,8.09165 Z M82.5017,5.9999 L88.4672,5.9999 C90.96995,5.9999 92.0327,7.3029 92.0327,9.1889 C92.0327,10.37165 91.43295,11.29715 90.43845,11.72565 C91.7762,12.08615 92.32445,13.30315 92.32445,14.5544 C92.32445,16.8344 90.9872,17.9999 88.2957,17.9999 L82.5017,17.9999 L82.5017,5.9999 Z M73.398925,8.3142 L73.398925,11.8112 L75.970425,11.8112 C77.084425,11.8112 77.753175,11.1942 77.753175,10.01195 C77.753175,9.0172 77.238425,8.3142 76.021425,8.3142 L73.398925,8.3142 Z M70.638925,5.99995 L76.484675,5.99995 C79.192925,5.99995 80.547425,7.5427 80.547425,9.9427 C80.547425,11.70895 79.810175,12.92595 78.524675,13.5257 L80.684925,17.99995 L77.598425,17.99995 L75.781425,14.0572 L73.398925,14.0572 L73.398925,17.99995 L70.638925,17.99995 L70.638925,5.99995 Z M59.296975,5.999875 L68.502225,5.999875 L68.502225,8.211625 L62.039475,8.211625 L62.039475,10.834125 L67.628475,10.834125 L67.628475,13.062375 L62.039475,13.062375 L62.039475,15.788375 L68.673725,15.788375 L68.673725,17.999875 L59.296975,17.999875 L59.296975,5.999875 Z M55.578975,9.27465 C55.013225,8.3999 54.275975,7.8859 53.007225,7.8859 C51.516225,7.8859 51.036225,8.4689 51.036225,9.2404 C51.036225,9.90865 51.498725,10.44015 52.887225,10.7659 L53.950225,11.02315 C56.658725,11.67465 57.755725,12.84015 57.755725,14.58865 C57.755725,16.9369 56.007225,18.2399 52.887225,18.2399 C50.864725,18.2399 49.064475,17.7084 48.018975,15.92565 L49.853475,14.5714 C50.538975,15.6859 51.464475,16.23415 52.835725,16.23415 C54.344475,16.23415 55.047475,15.7199 55.047475,14.77715 C55.047475,13.9714 54.653475,13.64565 53.281475,13.32015 L52.167475,13.0459 C49.458725,12.3769 48.464725,10.97165 48.464725,9.32565 C48.464725,7.21715 49.973225,5.7599 52.973225,5.7599 C55.047475,5.7599 56.556225,6.3599 57.464225,8.0059 L55.578975,9.27465 Z M43.81725,5.999875 L46.61125,5.999875 L46.61125,13.114375 C46.61125,16.714625 44.6395,18.239875 41.3315,18.239875 C37.9025,18.239875 35.99975,16.663125 35.99975,13.114375 L35.99975,5.999875 L38.8115,5.999875 L38.8115,13.268375 C38.8115,15.085875 39.7545,15.925875 41.314,15.925875 C42.87425,15.925875 43.81725,15.085875 43.81725,13.268375 L43.81725,5.999875 Z"></path><path fill="#00C878" d="M13,0 L13,24 C19.13825,23.636 24,18.73975 24,12.75 L24,0 L13,0 Z"></path><path fill="#2878F0" d="M0,12.75 C0,18.73975 4.86175,23.636 11,24 L11,0 L0,0 L0,12.75 Z"></path></svg>
